<mxfile host="Drawpyo" modified="2025-05-09T00:56:08" agent="Python 3.13, Drawpyo 0.01" version="21.6.5" type="device">
  <diagram name="Page-1" id="4304430352">
    <mxGraphModel dx="2037" dy="830" grid="1" gridSize="10" guides="1" toolTips="1" connect="1" arrows="1" fold="1" page="1" pageScale="1" pageWidth="850" pageHeight="1100" math="0" shadow="0">
      <root>
        <mxCell id="0" />
        <mxCell id="1" parent="0" />
        <mxCell id="4304431360" value="PetShop" style="whiteSpace=wrap;rounded=0;dashed=0;" vertex="1" parent="1">
  <mxGeometry x="95.0" y="10.0" width="120" height="80" as="geometry" />
</mxCell>
        <mxCell id="4305063440" value="Owner" style="whiteSpace=wrap;rounded=0;dashed=0;" vertex="1" parent="1">
  <mxGeometry x="230.0" y="10.0" width="120" height="80" as="geometry" />
</mxCell>
        <mxCell id="4305064720" value="Dog" style="whiteSpace=wrap;rounded=0;dashed=0;" vertex="1" parent="1">
  <mxGeometry x="635.0" y="150.0" width="120" height="80" as="geometry" />
</mxCell>
        <mxCell id="4305065680" value="Veterinarian" style="whiteSpace=wrap;rounded=0;dashed=0;" vertex="1" parent="1">
  <mxGeometry x="365.0" y="10.0" width="120" height="80" as="geometry" />
</mxCell>
        <mxCell id="4305066000" value="Cat" style="whiteSpace=wrap;rounded=0;dashed=0;" vertex="1" parent="1">
  <mxGeometry x="500.0" y="150.0" width="120" height="80" as="geometry" />
</mxCell>
        <mxCell id="4305066320" value="Animal" style="whiteSpace=wrap;rounded=0;dashed=0;" vertex="1" parent="1">
  <mxGeometry x="567.5" y="10.0" width="120" height="80" as="geometry" />
</mxCell>
        <mxCell id="4304432368" style="edgeStyle=orthogonalEdgeStyle;orthogonalLoop=1;rounded=0;jettySize=auto;endArrow=open;" edge="1" parent="1" source="4304431360" target="4305066320">
  <mxGeometry relative="1" as="geometry" />
</mxCell>
        <mxCell id="4305066640" style="edgeStyle=orthogonalEdgeStyle;orthogonalLoop=1;rounded=0;jettySize=auto;endArrow=open;" edge="1" parent="1" source="4304431360" target="4305065680">
  <mxGeometry relative="1" as="geometry" />
</mxCell>
        <mxCell id="4305067920" style="edgeStyle=orthogonalEdgeStyle;orthogonalLoop=1;rounded=0;jettySize=auto;entryX=0.5;entryY=0;exitX=0.5;exitY=1;" edge="1" parent="1" source="4305066320" target="4305066000">
  <mxGeometry relative="1" as="geometry" />
</mxCell>
        <mxCell id="4305068560" style="edgeStyle=orthogonalEdgeStyle;orthogonalLoop=1;rounded=0;jettySize=auto;entryX=0.5;entryY=0;exitX=0.5;exitY=1;" edge="1" parent="1" source="4305066320" target="4305064720">
  <mxGeometry relative="1" as="geometry" />
</mxCell>
      </root>
    </mxGraphModel>
  </diagram>
</mxfile>